<?xml version="1.0" standalone="no"?>
<!DOCTYPE svg PUBLIC "-//W3C//DTD SVG 20010904//EN"
 "http://www.w3.org/TR/2001/REC-SVG-20010904/DTD/svg10.dtd">
<svg version="1.0" xmlns="http://www.w3.org/2000/svg"
 width="608.000000pt" height="608.000000pt" viewBox="0 0 608.000000 608.000000"
 preserveAspectRatio="xMidYMid meet">
<metadata>
Created by potrace 1.11, written by Peter Selinger 2001-2013
</metadata>
<g transform="translate(0.000000,608.000000) scale(0.100000,-0.100000)"
fill="#000000" stroke="none">
<path d="M2710 5878 c-40 -28 -68 -73 -69 -111 -1 -35 33 -85 66 -98 21 -8 23
-13 17 -46 -4 -21 -10 -42 -14 -48 -8 -11 -25 -96 -35 -167 -5 -42 -10 -49
-33 -53 -75 -16 -107 -29 -133 -56 -16 -16 -29 -35 -29 -42 0 -9 2 -9 8 -1 13
21 107 73 137 76 l30 3 0 -90 0 -90 -33 -3 c-39 -4 -119 25 -132 47 -14 26
-25 3 -10 -23 14 -27 75 -56 118 -56 51 0 56 -11 64 -132 4 -62 12 -149 18
-193 6 -44 13 -104 16 -132 3 -29 10 -53 16 -53 6 0 8 16 5 38 -18 136 -36
327 -37 385 0 75 -2 73 73 80 59 6 72 -6 81 -70 4 -26 23 -99 43 -161 34 -108
53 -145 53 -103 0 11 -4 23 -10 26 -5 3 -10 19 -10 35 0 16 -4 31 -9 34 -5 3
-11 23 -14 43 -3 21 -11 61 -17 88 -6 28 -12 66 -13 85 -2 32 1 35 36 45 48
14 103 62 113 99 13 52 -16 90 -93 120 -37 16 -75 31 -83 36 -12 6 -15 27 -15
91 0 122 10 157 43 165 62 15 90 68 77 149 -13 91 -143 138 -225 83z m75 -370
c0 -101 4 -222 9 -269 l9 -86 -52 -7 c-28 -4 -56 -4 -61 -1 -31 19 30 457 72
518 11 15 20 27 21 27 1 0 2 -82 2 -182z m119 -183 c34 -7 86 -53 86 -75 0
-44 -118 -105 -147 -76 -9 9 -19 123 -14 159 1 4 12 5 26 2 14 -3 36 -7 49
-10z"/>
<path d="M2930 4716 c0 -9 5 -16 10 -16 6 0 10 4 10 9 0 6 -4 13 -10 16 -5 3
-10 -1 -10 -9z"/>
<path d="M2950 4651 c0 -6 5 -13 10 -16 6 -3 10 1 10 9 0 9 -4 16 -10 16 -5 0
-10 -4 -10 -9z"/>
<path d="M2955 4569 c-39 -41 -63 -49 -140 -49 -54 0 -66 3 -75 20 -6 11 -21
20 -34 20 -30 0 -113 -46 -126 -70 -13 -24 -13 -95 -1 -138 13 -45 7 -57 -45
-87 -120 -70 -470 -466 -576 -652 -12 -21 -56 -72 -99 -114 -82 -80 -99 -114
-99 -196 0 -23 -4 -44 -9 -47 -19 -12 -154 -287 -196 -401 -59 -157 -69 -217
-69 -390 1 -179 12 -244 68 -389 24 -62 71 -153 86 -166 3 -3 18 -23 35 -45
60 -82 212 -204 322 -259 37 -19 39 -23 18 -53 -10 -15 -33 -24 -82 -33 -97
-16 -181 -61 -246 -129 -98 -102 -132 -200 -126 -361 6 -135 20 -161 160 -292
24 -22 28 -36 34 -114 16 -189 -12 -378 -77 -523 -30 -69 -27 -88 14 -78 14 4
31 21 41 42 11 23 24 35 37 35 26 0 35 -22 21 -48 -10 -20 -7 -20 137 -24 81
-1 178 -1 216 0 l69 4 -9 61 c-24 173 -2 361 48 414 44 47 119 15 134 -56 3
-14 12 -43 20 -64 8 -22 14 -74 14 -128 0 -49 5 -121 11 -159 l12 -70 976 -2
c537 -2 980 0 985 4 4 3 10 54 13 112 3 58 10 106 14 106 5 0 9 -5 9 -11 0
-20 77 -176 98 -197 19 -19 30 -19 248 -16 126 2 232 4 236 4 4 0 -1 15 -12
33 -130 218 -210 412 -245 597 -9 47 -18 91 -21 98 -2 7 20 35 50 63 70 65
122 167 138 271 23 156 -31 309 -155 436 -101 104 -258 182 -363 182 -24 0
-44 5 -44 10 0 6 27 43 59 83 56 69 141 218 141 249 0 8 4 18 9 24 9 10 23 64
41 160 14 69 8 414 -8 507 -12 66 -54 221 -72 262 -5 11 -19 49 -31 85 -58
164 -273 534 -387 665 -10 11 -46 54 -79 95 -80 97 -279 293 -363 357 -148
112 -270 180 -380 212 -68 20 -72 23 -92 82 -10 30 -26 60 -35 67 -10 7 -46
12 -84 12 -37 0 -71 5 -74 10 -11 17 -29 11 -60 -21z m99 -57 c20 -33 -123
-72 -262 -72 -143 0 -217 42 -113 64 34 7 54 5 93 -9 56 -20 140 -16 198 9 39
17 76 20 84 8z m215 -182 c9 -5 60 -29 114 -54 53 -25 97 -50 97 -56 0 -21
-73 -120 -89 -120 -9 0 -29 9 -46 21 -77 52 -257 129 -304 129 -35 0 -24 16
28 39 27 11 53 21 56 21 4 0 19 9 33 21 27 21 71 20 111 -1z m-551 -68 c8 -5
-11 -16 -52 -30 -75 -26 -93 -28 -74 -8 37 36 98 55 126 38z m-524 -464 c-9
-18 -41 -70 -70 -115 -38 -59 -59 -83 -74 -83 -11 0 -20 4 -20 9 0 18 169 231
178 225 2 -1 -4 -17 -14 -36z m1233 -237 c145 -57 188 -142 136 -263 -18 -40
-33 -41 -33 -3 0 37 -35 88 -87 126 -161 117 -391 157 -937 161 -194 1 -227 3
-146 8 58 4 303 6 545 5 l440 -1 82 -33z m-1618 -420 l20 -38 -43 -129 c-57
-174 -63 -200 -77 -353 -15 -153 -3 -309 30 -399 43 -117 74 -153 375 -436
169 -159 192 -212 72 -167 -130 48 -265 126 -367 212 -100 84 -205 251 -241
382 -29 105 -35 279 -14 401 23 133 52 222 130 389 20 42 36 80 36 83 0 8 51
94 56 94 2 0 12 -17 23 -39z m311 -1606 c27 -14 30 -20 30 -65 0 -70 32 -131
99 -191 148 -134 393 -202 721 -202 183 -1 565 39 609 62 11 6 29 11 41 11 31
0 262 79 281 96 8 8 20 14 26 14 6 0 40 23 77 51 40 31 72 49 81 45 23 -9 19
-62 -7 -86 -45 -41 -239 -134 -338 -160 -25 -7 -56 -16 -70 -21 -14 -4 -50
-13 -80 -18 -30 -6 -89 -18 -131 -26 -137 -26 -477 -40 -661 -27 -406 30 -685
156 -739 333 -6 20 -7 69 -4 117 7 90 12 94 65 67z m-307 -134 c-10 -16 -36
-55 -59 -87 -62 -91 -84 -154 -84 -243 0 -52 6 -93 20 -129 24 -62 26 -94 6
-86 -36 14 -106 171 -106 237 0 41 38 144 71 192 34 51 95 109 134 129 40 21
40 21 18 -13z m509 -590 c13 -5 32 -25 43 -45 23 -42 14 -78 -26 -108 -22 -17
-31 -18 -67 -9 -77 21 -118 105 -72 151 22 22 80 27 122 11z m-485 -505 c-9
-126 -15 -146 -43 -146 -27 0 -27 3 2 100 8 25 14 63 14 86 0 43 7 57 23 47 6
-4 7 -37 4 -87z"/>
<path d="M2027 1784 c-4 -4 -7 -25 -7 -46 0 -38 1 -39 33 -36 30 3 32 5 32 43
0 35 -3 40 -25 43 -14 2 -29 0 -33 -4z"/>
</g>
</svg>
